<?xml version="1.0" encoding="UTF-8"?>
<!DOCTYPE svg PUBLIC "-//W3C//DTD SVG 1.1//EN" "http://www.w3.org/Graphics/SVG/1.1/DTD/svg11.dtd">
<svg xmlns="http://www.w3.org/2000/svg" version="1.1" width="352px" height="352px" style="shape-rendering:geometricPrecision; text-rendering:geometricPrecision; image-rendering:optimizeQuality; fill-rule:evenodd; clip-rule:evenodd" xmlns:xlink="http://www.w3.org/1999/xlink">
<g><path style="opacity:1" fill="#ff823c" d="M 174.5,-0.5 C 175.167,-0.5 175.833,-0.5 176.5,-0.5C 234.5,58.1667 292.833,116.5 351.5,174.5C 351.5,175.167 351.5,175.833 351.5,176.5C 292.833,234.5 234.5,292.833 176.5,351.5C 175.833,351.5 175.167,351.5 174.5,351.5C 116.5,292.833 58.1667,234.5 -0.5,176.5C -0.5,175.833 -0.5,175.167 -0.5,174.5C 58.1667,116.5 116.5,58.1667 174.5,-0.5 Z M 174.5,34.5 C 175.331,45.9928 175.831,57.6595 176,69.5C 211.347,104.68 246.514,140.014 281.5,175.5C 246.514,210.986 211.347,246.32 176,281.5C 175.667,293.167 175.333,304.833 175,316.5C 127.986,269.653 81.153,222.653 34.5,175.5C 81.1877,128.479 127.854,81.4791 174.5,34.5 Z"/></g>
<g><path style="opacity:0.176" fill="#ff8f53" d="M 300.5,158.5 C 259.25,118.751 218.417,78.4179 178,37.5C 177.333,36.8333 177.333,36.1667 178,35.5C 219.035,76.368 259.868,117.368 300.5,158.5 Z"/></g>
<g><path style="opacity:1" fill="#fe823b" d="M 174.5,70.5 C 175.824,82.0067 175.824,93.6734 174.5,105.5C 150.833,128.5 127.5,151.833 104.5,175.5C 127.5,199.167 150.833,222.5 174.5,245.5C 175.666,257.152 175.833,268.819 175,280.5C 139.986,245.653 105.153,210.653 70.5,175.5C 105.188,140.479 139.854,105.479 174.5,70.5 Z"/></g>
<g><path style="opacity:1" fill="#fe823b" d="M 174.5,141.5 C 186.76,152.092 198.427,163.425 209.5,175.5C 198.5,187.167 187.167,198.5 175.5,209.5C 163.833,198.5 152.5,187.167 141.5,175.5C 152.521,164.146 163.521,152.813 174.5,141.5 Z"/></g>
<g><path style="opacity:1" fill="#ff8846" d="M 300.5,158.5 C 305.965,163.464 311.298,168.63 316.5,174C 315.833,174.667 315.167,174.667 314.5,174C 309.234,169.241 304.567,164.075 300.5,158.5 Z"/></g>
<g><path style="opacity:1" fill="#ff8e51" d="M 298.5,192.5 C 299.239,192.369 299.906,192.536 300.5,193C 259.667,233.833 218.833,274.667 178,315.5C 177.333,314.833 177.333,314.167 178,313.5C 218.368,273.299 258.535,232.965 298.5,192.5 Z"/></g>
</svg>
